<svg xmlns="http://www.w3.org/2000/svg" viewBox="0 0 1400 900" role="img" aria-labelledby="title desc">
  <title id="title">Nepalese students studying for IELTS and PTE</title>
  <desc id="desc">A friendly group of young Nepalese students smiling with laptops and books.</desc>
  <defs>
    <linearGradient id="bg" x1="0" x2="1" y1="0" y2="1">
      <stop offset="0" stop-color="#eef5ff"/>
      <stop offset=".55" stop-color="#ffffff"/>
      <stop offset="1" stop-color="#ffeef0"/>
    </linearGradient>
    <linearGradient id="blue" x1="0" x2="1">
      <stop offset="0" stop-color="#30398f"/>
      <stop offset="1" stop-color="#0f5dbf"/>
    </linearGradient>
    <filter id="shadow" x="-20%" y="-20%" width="140%" height="140%">
      <feDropShadow dx="0" dy="24" stdDeviation="24" flood-color="#14213d" flood-opacity=".18"/>
    </filter>
  </defs>
  <rect width="1400" height="900" fill="url(#bg)"/>
  <path d="M0 680c200-88 366-90 548-46 214 52 381 18 520-58 133-73 235-89 332-54v378H0z" fill="#eef3ff"/>
  <circle cx="1180" cy="160" r="92" fill="#ffccd2" opacity=".55"/>
  <circle cx="182" cy="172" r="74" fill="#dce8ff" opacity=".85"/>
  <g filter="url(#shadow)">
    <rect x="290" y="465" width="820" height="245" rx="28" fill="#fff"/>
    <rect x="360" y="520" width="250" height="145" rx="18" fill="#e8eef8"/>
    <rect x="386" y="546" width="198" height="88" rx="10" fill="url(#blue)"/>
    <rect x="698" y="520" width="310" height="145" rx="18" fill="#f4f7fb"/>
    <path d="M745 565h218M745 600h170M745 635h116" stroke="#30398f" stroke-width="18" stroke-linecap="round" opacity=".22"/>
  </g>
  <g filter="url(#shadow)">
    <g transform="translate(212 250)">
      <circle cx="118" cy="90" r="56" fill="#9f643f"/>
      <path d="M58 86c5-54 38-82 88-70 39 9 58 43 45 90-39-17-82-20-133-20z" fill="#161b2f"/>
      <path d="M38 235c8-73 55-112 126-112 73 0 121 39 132 112l20 160H18z" fill="#30398f"/>
      <path d="M94 144c26 18 52 18 78 0l-8 72h-62z" fill="#f3c09d"/>
      <path d="M74 238h142l-18 157H92z" fill="#fff"/>
      <path d="M84 275h122" stroke="#ed1b2a" stroke-width="14" stroke-linecap="round"/>
    </g>
    <g transform="translate(548 205)">
      <circle cx="126" cy="94" r="58" fill="#8c5736"/>
      <path d="M63 100c-8-75 37-106 97-92 48 11 73 57 57 114-43-34-98-42-154-22z" fill="#1d2438"/>
      <path d="M18 420l32-178c13-73 61-111 137-111 74 0 121 38 136 111l35 178z" fill="#ed1b2a"/>
      <path d="M100 150c24 19 51 19 78 0l-10 72h-58z" fill="#efbd9a"/>
      <path d="M77 252h196l-28 168H104z" fill="#fff"/>
      <path d="M129 284h92M111 322h130M132 360h90" stroke="#30398f" stroke-width="12" stroke-linecap="round" opacity=".2"/>
    </g>
    <g transform="translate(878 255)">
      <circle cx="118" cy="88" r="54" fill="#a86b44"/>
      <path d="M56 94c2-66 42-96 93-85 45 10 65 47 52 98-43-20-88-24-145-13z" fill="#24283b"/>
      <path d="M23 398l20-164c9-72 55-110 127-110s118 38 127 110l20 164z" fill="#30398f"/>
      <path d="M92 142c25 17 51 17 78 0l-10 68h-58z" fill="#f0bf9a"/>
      <rect x="54" y="250" width="230" height="140" rx="18" fill="#fff"/>
      <path d="M91 294h154M91 330h110" stroke="#ed1b2a" stroke-width="13" stroke-linecap="round" opacity=".24"/>
    </g>
  </g>
  <g fill="#0b1830" opacity=".72">
    <text x="76" y="810" font-family="Arial, sans-serif" font-size="34" font-weight="700">IELTS Academic</text>
    <text x="76" y="854" font-family="Arial, sans-serif" font-size="34" font-weight="700">PTE Academic</text>
  </g>
</svg>
