<svg xmlns="http://www.w3.org/2000/svg" viewBox="0 0 900 620" role="img" aria-label="Nepalese student taking notes">
  <rect width="900" height="620" fill="#f4f7fb"/>
  <rect x="500" y="120" width="250" height="330" rx="24" fill="#fff" stroke="#d9e2ef"/>
  <path d="M545 180h150M545 230h120M545 280h155M545 330h98" stroke="#30398f" stroke-width="14" stroke-linecap="round" opacity=".22"/>
  <g transform="translate(168 86)">
    <circle cx="150" cy="112" r="64" fill="#9b613e"/>
    <path d="M78 118c-4-70 38-113 104-102 54 9 84 52 66 112-59-28-115-31-170-10z" fill="#1e2438"/>
    <path d="M34 452c15-135 72-208 148-208 78 0 136 73 151 208z" fill="#30398f"/>
    <path d="M118 180c26 17 52 17 80 0l-10 72h-60z" fill="#efbd9a"/>
    <rect x="28" y="308" width="292" height="126" rx="18" fill="#fff"/>
    <path d="M70 350h160M70 388h120" stroke="#ed1b2a" stroke-width="13" stroke-linecap="round" opacity=".32"/>
  </g>
  <text x="450" y="560" text-anchor="middle" font-family="Arial, sans-serif" font-size="32" font-weight="700" fill="#172033">Practice, Notes, Feedback</text>
</svg>
